<?xml version="1.0" encoding="UTF-8"?>
<svg id="Layer_1" data-name="Layer 1" xmlns="http://www.w3.org/2000/svg" viewBox="0 0 339.07 44.95">
  <path d="m67.85,11.7c-3.39,0-6.54,1.02-9.17,2.76V.22l-7.46,5v39.73h7.46v-2.76c2.63,1.74,5.78,2.76,9.17,2.76,9.18,0,16.62-7.44,16.62-16.62s-7.44-16.62-16.62-16.62Zm0,25.81c-4.96,0-8.99-3.94-9.17-8.86v-.66c.17-4.92,4.21-8.86,9.17-8.86s9.18,4.11,9.18,9.18-4.11,9.18-9.18,9.18Z" style="fill: #fff;"/>
  <polygon points="277.35 11.7 284.8 16.7 284.8 44.95 277.35 44.95 277.35 11.7" style="fill: #fbb040;"/>
  <rect x="277.35" y="0" width="7.46" height="7.46" transform="translate(562.15 7.46) rotate(-180)" style="fill: #fbb040;"/>
  <path d="m104.62,24.63h-6.69c-2.2,0-3.46-1-3.46-2.75s1.26-2.75,3.46-2.75h12.67l5-7.45h-17.67c-6.32,0-10.91,4.29-10.91,10.2s4.59,10.2,10.91,10.2h6.69c2.2,0,3.46.98,3.46,2.68s-1.26,2.68-3.46,2.68h-12.57l-5,7.45h17.57c6.32,0,10.91-4.26,10.91-10.13s-4.59-10.13-10.91-10.13Z" style="fill: #fff;"/>
  <path d="m195.12,23.26l-6.65-6.65-4.11-4.11c-1.6-.51-3.3-.79-5.07-.79-9.18,0-16.62,7.44-16.62,16.62s7.44,16.62,16.62,16.62c3.4,0,6.55-1.02,9.18-2.77v2.77h7.44v-20.9l-.79-.79Zm-15.83,14.26c-5.07,0-9.18-4.11-9.18-9.18s4.11-9.18,9.18-9.18,9.18,4.11,9.18,9.18-4.11,9.18-9.18,9.18Z" style="fill: #fff;"/>
  <g>
    <path d="m318.28,19.15c-2.72-4.29-7.5-7.15-12.94-7.15-2.88,0-5.58.82-7.88,2.21v-2.51h-7.44v7.45h28.26Z" style="fill: #fbb040;"/>
    <path d="m313.19,26.71c.02.2.03.41.03.61v17.63h7.45v-17.63c0-.21-.02-.41-.03-.61h-7.45Z" style="fill: #fbb040;"/>
    <path d="m290.02,26.71v18.24h7.45v-17.63c0-.21.02-.41.03-.61h-7.48Z" style="fill: #fbb040;"/>
  </g>
  <g>
    <polygon points="332.92 19.15 337.72 19.15 337.72 11.7 332.92 11.7 332.92 .08 325.47 .08 325.47 11.7 320.67 11.7 320.67 19.15 325.47 19.15 332.92 19.15" style="fill: #fbb040;"/>
    <path d="m336.38,37.42c-1.01,0-3.37-.25-3.45-2.5,0-.24,0-2.53,0-2.61h0v-5.6h-7.45v5.6h0c0,.09,0,2.72,0,2.8.2,5.65,4.78,9.75,10.9,9.75h2.69v-7.45h-2.69Z" style="fill: #fbb040;"/>
  </g>
  <path d="m273,28.1c0-9.18-7.44-16.62-16.62-16.62-7.88,0-14.46,5.49-16.18,12.84h7.81c1.44-3.18,4.64-5.4,8.36-5.4,5.07,0,9.18,4.11,9.18,9.18,0,5.07-4.11,9.18-9.18,9.18-3.72,0-6.92-2.22-8.36-5.4h-7.81c1.71,7.36,8.3,12.84,16.18,12.84,9.18,0,16.62-7.44,16.62-16.62Z" style="fill: #fbb040;"/>
  <path d="m223.96.08h-22.18v15.62h7.46V7.53h14.73c4.33,0,7.87,3.54,7.87,7.87s-3.54,7.87-7.87,7.87h-14.73s-7.46-.01-7.46-.01v21.69h7.46v-14.23h14.73c8.45,0,15.32-6.87,15.32-15.32S232.41.08,223.96.08Z" style="fill: #fbb040;"/>
  <g>
    <path d="m157.79,19.15c.18-.01.35-.02.53-.03h4.34v-7.42h-3.39s-2.48,0-3.8.24c-2.26.41-4.41,1.29-6.32,2.55v-2.79h-7.46v7.45h16.1Z" style="fill: #fff;"/>
    <path d="m141.7,26.71v18.24h7.46v-17.03c.02-.4.07-.81.14-1.21h-7.59Z" style="fill: #fff;"/>
  </g>
  <g>
    <polygon points="131.17 19.15 135.98 19.15 135.98 11.7 131.17 11.7 131.17 .08 123.72 .08 123.72 11.7 118.92 11.7 118.92 19.15 123.72 19.15 131.17 19.15" style="fill: #fff;"/>
    <path d="m131.18,34.93c0-.24,0-2.53,0-2.61h0v-5.6h-7.45v5.6h0c0,.09,0,2.72,0,2.8.2,5.65,4.78,9.75,10.9,9.75h2.69v-7.45h-2.69c-1.01,0-3.37-.25-3.45-2.5Z" style="fill: #fff;"/>
  </g>
  <g>
    <polygon points="3.77 36.56 0 44.95 8.18 44.95 11.96 36.56 3.77 36.56" style="fill: #fff;"/>
    <polygon points="15.36 29 24.33 9.04 33.3 29 41.49 29 28.48 .08 28.36 .08 20.3 .08 20.18 .08 7.17 29 15.36 29" style="fill: #fff;"/>
    <polygon points="44.89 36.56 36.7 36.56 40.48 44.95 48.66 44.95 44.89 36.56" style="fill: #fff;"/>
  </g>
</svg>