<?xml version="1.0" encoding="UTF-8"?>
<svg id="Layer_1" data-name="Layer 1" xmlns="http://www.w3.org/2000/svg" viewBox="0 0 425.2 141.73">
  <path d="m110.91,60.09c-3.39,0-6.54,1.02-9.17,2.76v-14.25l-7.46,5v39.73h7.46v-2.76c2.63,1.74,5.78,2.76,9.17,2.76,9.18,0,16.62-7.44,16.62-16.62s-7.44-16.62-16.62-16.62Zm0,25.81c-4.96,0-8.99-3.94-9.17-8.86v-.66c.17-4.92,4.21-8.86,9.17-8.86s9.18,4.11,9.18,9.18-4.11,9.18-9.18,9.18Z" style="fill: #414141;"/>
  <polygon points="320.41 60.09 327.87 65.09 327.87 93.34 320.41 93.34 320.41 60.09" style="fill: #fbb040;"/>
  <rect x="320.41" y="48.39" width="7.46" height="7.46" transform="translate(648.28 104.24) rotate(-180)" style="fill: #fbb040;"/>
  <path d="m147.68,73.01h-6.69c-2.2,0-3.46-1-3.46-2.75s1.26-2.75,3.46-2.75h12.67l5-7.45h-17.67c-6.32,0-10.91,4.29-10.91,10.2s4.59,10.2,10.91,10.2h6.69c2.2,0,3.46.98,3.46,2.68s-1.26,2.68-3.46,2.68h-12.57l-5,7.45h17.57c6.32,0,10.91-4.26,10.91-10.13s-4.59-10.13-10.91-10.13Z" style="fill: #414141;"/>
  <circle cx="222.35" cy="76.72" r="9.18" style="fill: none;"/>
  <g>
    <circle cx="222.35" cy="76.72" r="9.18" style="fill: none;"/>
    <path d="m238.19,71.65l-6.65-6.65-4.11-4.11c-1.6-.51-3.3-.79-5.07-.79-9.18,0-16.62,7.44-16.62,16.62s7.44,16.62,16.62,16.62c3.4,0,6.55-1.02,9.18-2.77v2.77h7.44v-20.9l-.79-.79Zm-15.83,14.26c-5.07,0-9.18-4.11-9.18-9.18s4.11-9.18,9.18-9.18,9.18,4.11,9.18,9.18-4.11,9.18-9.18,9.18Z" style="fill: #414141;"/>
  </g>
  <g>
    <path d="m361.35,67.54c-2.72-4.29-7.5-7.15-12.94-7.15-2.88,0-5.58.82-7.88,2.21v-2.51h-7.44v7.45h28.26Z" style="fill: #fbb040;"/>
    <path d="m356.25,75.1c.02.2.03.41.03.61v17.63h7.45v-17.63c0-.21-.02-.41-.03-.61h-7.45Z" style="fill: #fbb040;"/>
    <path d="m333.09,75.1v18.24h7.45v-17.63c0-.21.02-.41.03-.61h-7.48Z" style="fill: #fbb040;"/>
  </g>
  <g>
    <polygon points="375.98 67.54 380.79 67.54 380.79 60.09 375.98 60.09 375.98 48.47 368.53 48.47 368.53 60.09 363.73 60.09 363.73 67.54 368.53 67.54 375.98 67.54" style="fill: #fbb040;"/>
    <path d="m379.44,85.81c-1.01,0-3.37-.25-3.45-2.5,0-.24,0-2.53,0-2.61h0v-5.6h-7.45v5.6h0c0,.09,0,2.72,0,2.8.2,5.65,4.78,9.75,10.9,9.75h2.69v-7.45h-2.69Z" style="fill: #fbb040;"/>
  </g>
  <path d="m316.07,76.49c0-9.18-7.44-16.62-16.62-16.62-7.88,0-14.46,5.49-16.18,12.84h7.81c1.44-3.18,4.64-5.4,8.36-5.4,5.07,0,9.18,4.11,9.18,9.18,0,5.07-4.11,9.18-9.18,9.18-3.72,0-6.92-2.22-8.36-5.4h-7.81c1.71,7.36,8.3,12.84,16.18,12.84,9.18,0,16.62-7.44,16.62-16.62Z" style="fill: #fbb040;"/>
  <path d="m267.02,48.47h-22.18v15.62h7.46v-8.17h14.73c4.33,0,7.87,3.54,7.87,7.87s-3.54,7.87-7.87,7.87h-14.73s-7.46-.01-7.46-.01v21.69h7.46v-14.23h14.73c8.45,0,15.32-6.87,15.32-15.32s-6.87-15.32-15.32-15.32Z" style="fill: #fbb040;"/>
  <g>
    <path d="m200.86,67.54c.18-.01.35-.02.53-.03h4.34v-7.42h-3.39s-2.48,0-3.8.24c-2.26.41-4.41,1.29-6.32,2.55v-2.79h-7.46v7.45h16.1Z" style="fill: #414141;"/>
    <path d="m184.76,75.1v18.24h7.46v-17.03c.02-.4.07-.81.14-1.21h-7.59Z" style="fill: #414141;"/>
  </g>
  <g>
    <polygon points="174.24 67.54 179.04 67.54 179.04 60.09 174.24 60.09 174.24 48.47 166.79 48.47 166.79 60.09 161.98 60.09 161.98 67.54 166.79 67.54 174.24 67.54" style="fill: #414141;"/>
    <path d="m174.24,83.32c0-.24,0-2.53,0-2.61h0v-5.6h-7.45v5.6h0c0,.09,0,2.72,0,2.8.2,5.65,4.78,9.75,10.9,9.75h2.69v-7.45h-2.69c-1.01,0-3.37-.25-3.45-2.5Z" style="fill: #414141;"/>
  </g>
  <g>
    <polygon points="46.84 84.95 43.06 93.34 51.25 93.34 55.02 84.95 46.84 84.95" style="fill: #414141;"/>
    <polygon points="58.42 77.39 67.39 57.43 76.37 77.39 84.55 77.39 71.55 48.47 71.42 48.47 63.36 48.47 63.24 48.47 50.24 77.39 58.42 77.39" style="fill: #414141;"/>
    <polygon points="87.95 84.95 79.77 84.95 83.54 93.34 91.72 93.34 87.95 84.95" style="fill: #414141;"/>
  </g>
</svg>