<svg xmlns="http://www.w3.org/2000/svg" xmlns:xlink="http://www.w3.org/1999/xlink" version="1.1" viewBox="50.54 57.08 397.92 52.84">
<g id="surface1">
<path style=" stroke:none;fill-rule:nonzero;fill:rgb(25.490198%,25.490198%,25.490198%);fill-opacity:1;" d="M 130.160156 70.832031 C 126.183594 70.832031 122.484375 72.03125 119.398438 74.078125 L 119.398438 57.328125 L 110.644531 63.203125 L 110.644531 109.90625 L 119.398438 109.90625 L 119.398438 106.664062 C 122.484375 108.707031 126.183594 109.90625 130.160156 109.90625 C 140.933594 109.90625 149.664062 101.160156 149.664062 90.371094 C 149.664062 79.578125 140.933594 70.832031 130.160156 70.832031 Z M 130.160156 101.171875 C 124.339844 101.171875 119.609375 96.542969 119.398438 90.757812 L 119.398438 89.984375 C 119.597656 84.199219 124.339844 79.566406 130.160156 79.566406 C 135.980469 79.566406 140.933594 84.398438 140.933594 90.359375 C 140.933594 96.320312 136.109375 101.148438 130.160156 101.148438 Z M 130.160156 101.171875 "/>
<path style=" stroke:none;fill-rule:nonzero;fill:rgb(98.431373%,69.01961%,25.098041%);fill-opacity:1;" d="M 376.023438 70.832031 L 384.777344 76.710938 L 384.777344 109.917969 L 376.023438 109.917969 Z M 376.023438 70.832031 "/>
<path style=" stroke:none;fill-rule:nonzero;fill:rgb(98.431373%,69.01961%,25.098041%);fill-opacity:1;" d="M 384.777344 65.851562 L 376.023438 65.851562 L 376.023438 57.082031 L 384.777344 57.082031 Z M 384.777344 65.851562 "/>
<path style=" stroke:none;fill-rule:nonzero;fill:rgb(25.490198%,25.490198%,25.490198%);fill-opacity:1;" d="M 173.3125 86.019531 L 165.460938 86.019531 C 162.878906 86.019531 161.402344 84.847656 161.402344 82.789062 C 161.402344 80.730469 162.878906 79.554688 165.460938 79.554688 L 180.328125 79.554688 L 186.199219 70.796875 L 165.460938 70.796875 C 158.042969 70.796875 152.65625 75.839844 152.65625 82.789062 C 152.65625 89.734375 158.042969 94.777344 165.460938 94.777344 L 173.3125 94.777344 C 175.894531 94.777344 177.371094 95.929688 177.371094 97.929688 C 177.371094 99.925781 175.894531 101.078125 173.3125 101.078125 L 158.558594 101.078125 L 152.691406 109.835938 L 173.3125 109.835938 C 180.730469 109.835938 186.117188 104.828125 186.117188 97.929688 C 186.117188 91.027344 180.730469 86.019531 173.3125 86.019531 Z M 173.3125 86.019531 "/>
<path style=" stroke:none;fill-rule:nonzero;fill:rgb(25.490198%,25.490198%,25.490198%);fill-opacity:1;" d="M 279.53125 84.421875 L 271.726562 76.605469 L 266.902344 71.773438 C 265.027344 71.175781 263.03125 70.847656 260.953125 70.847656 C 250.179688 70.847656 241.449219 79.589844 241.449219 90.382812 C 241.449219 101.171875 250.179688 109.917969 260.953125 109.917969 C 264.945312 109.917969 268.640625 108.71875 271.726562 106.664062 L 271.726562 109.917969 L 280.457031 109.917969 L 280.457031 85.351562 Z M 260.953125 101.183594 C 255.003906 101.183594 250.179688 96.355469 250.179688 90.394531 C 250.179688 84.433594 255.003906 79.601562 260.953125 79.601562 C 266.902344 79.601562 271.726562 84.433594 271.726562 90.394531 C 271.726562 96.355469 266.902344 101.183594 260.953125 101.183594 Z M 260.953125 101.183594 "/>
<path style=" stroke:none;fill-rule:nonzero;fill:rgb(98.431373%,69.01961%,25.098041%);fill-opacity:1;" d="M 424.066406 79.589844 C 420.875 74.546875 415.265625 71.1875 408.882812 71.1875 C 405.503906 71.1875 402.332031 72.152344 399.632812 73.785156 L 399.632812 70.832031 L 390.902344 70.832031 L 390.902344 79.589844 Z M 424.066406 79.589844 "/>
<path style=" stroke:none;fill-rule:nonzero;fill:rgb(98.431373%,69.01961%,25.098041%);fill-opacity:1;" d="M 418.082031 88.476562 C 418.105469 88.714844 418.117188 88.960938 418.117188 89.195312 L 418.117188 109.917969 L 426.859375 109.917969 L 426.859375 89.195312 C 426.859375 88.949219 426.835938 88.714844 426.824219 88.476562 Z M 418.082031 88.476562 "/>
<path style=" stroke:none;fill-rule:nonzero;fill:rgb(98.431373%,69.01961%,25.098041%);fill-opacity:1;" d="M 390.902344 88.476562 L 390.902344 109.917969 L 399.644531 109.917969 L 399.644531 89.195312 C 399.644531 88.949219 399.667969 88.714844 399.679688 88.476562 Z M 390.902344 88.476562 "/>
<path style=" stroke:none;fill-rule:nonzero;fill:rgb(98.431373%,69.01961%,25.098041%);fill-opacity:1;" d="M 441.238281 79.589844 L 446.882812 79.589844 L 446.882812 70.832031 L 441.238281 70.832031 L 441.238281 57.175781 L 432.492188 57.175781 L 432.492188 70.832031 L 426.859375 70.832031 L 426.859375 79.589844 Z M 441.238281 79.589844 "/>
<path style=" stroke:none;fill-rule:nonzero;fill:rgb(98.431373%,69.01961%,25.098041%);fill-opacity:1;" d="M 445.296875 101.066406 C 444.113281 101.066406 441.34375 100.773438 441.25 98.128906 C 441.25 97.847656 441.25 95.15625 441.25 95.0625 L 441.25 88.476562 L 432.503906 88.476562 L 432.503906 95.0625 C 432.503906 95.167969 432.503906 98.257812 432.503906 98.351562 C 432.742188 104.992188 438.117188 109.8125 445.296875 109.8125 L 448.453125 109.8125 L 448.453125 101.054688 L 445.296875 101.054688 Z M 445.296875 101.066406 "/>
<path style=" stroke:none;fill-rule:nonzero;fill:rgb(98.431373%,69.01961%,25.098041%);fill-opacity:1;" d="M 370.929688 90.113281 C 370.929688 79.320312 362.199219 70.574219 351.425781 70.574219 C 342.175781 70.574219 334.453125 77.027344 332.4375 85.667969 L 341.601562 85.667969 C 343.292969 81.929688 347.046875 79.320312 351.414062 79.320312 C 357.363281 79.320312 362.1875 84.152344 362.1875 90.113281 C 362.1875 96.070312 357.363281 100.902344 351.414062 100.902344 C 347.046875 100.902344 343.292969 98.292969 341.601562 94.554688 L 332.4375 94.554688 C 334.441406 103.207031 342.175781 109.648438 351.425781 109.648438 C 362.199219 109.648438 370.929688 100.902344 370.929688 90.113281 Z M 370.929688 90.113281 "/>
<path style=" stroke:none;fill-rule:nonzero;fill:rgb(98.431373%,69.01961%,25.098041%);fill-opacity:1;" d="M 313.367188 57.175781 L 287.335938 57.175781 L 287.335938 75.535156 L 296.089844 75.535156 L 296.089844 65.933594 L 313.378906 65.933594 C 318.457031 65.933594 322.613281 70.09375 322.613281 75.183594 C 322.613281 80.273438 318.457031 84.433594 313.378906 84.433594 L 296.089844 84.433594 C 296.089844 84.433594 287.335938 84.421875 287.335938 84.421875 L 287.335938 109.917969 L 296.089844 109.917969 L 296.089844 93.191406 L 313.378906 93.191406 C 323.292969 93.191406 331.355469 85.117188 331.355469 75.183594 C 331.355469 65.25 323.292969 57.175781 313.378906 57.175781 Z M 313.367188 57.175781 "/>
<path style=" stroke:none;fill-rule:nonzero;fill:rgb(25.490198%,25.490198%,25.490198%);fill-opacity:1;" d="M 235.722656 79.589844 C 235.933594 79.578125 236.132812 79.566406 236.34375 79.554688 L 241.4375 79.554688 L 241.4375 70.832031 L 237.460938 70.832031 C 237.460938 70.832031 234.546875 70.832031 233 71.117188 C 230.347656 71.597656 227.824219 72.632812 225.582031 74.113281 L 225.582031 70.832031 L 216.828125 70.832031 L 216.828125 79.589844 Z M 235.722656 79.589844 "/>
<path style=" stroke:none;fill-rule:nonzero;fill:rgb(25.490198%,25.490198%,25.490198%);fill-opacity:1;" d="M 216.828125 88.476562 L 216.828125 109.917969 L 225.582031 109.917969 L 225.582031 89.902344 C 225.605469 89.429688 225.664062 88.949219 225.746094 88.476562 Z M 216.828125 88.476562 "/>
<path style=" stroke:none;fill-rule:nonzero;fill:rgb(25.490198%,25.490198%,25.490198%);fill-opacity:1;" d="M 204.480469 79.589844 L 210.113281 79.589844 L 210.113281 70.832031 L 204.480469 70.832031 L 204.480469 57.175781 L 195.738281 57.175781 L 195.738281 70.832031 L 190.09375 70.832031 L 190.09375 79.589844 Z M 204.480469 79.589844 "/>
<path style=" stroke:none;fill-rule:nonzero;fill:rgb(25.490198%,25.490198%,25.490198%);fill-opacity:1;" d="M 204.480469 98.140625 C 204.480469 97.859375 204.480469 95.167969 204.480469 95.074219 L 204.480469 88.488281 L 195.738281 88.488281 L 195.738281 95.074219 C 195.738281 95.179688 195.738281 98.269531 195.738281 98.363281 C 195.972656 105.003906 201.347656 109.824219 208.53125 109.824219 L 211.6875 109.824219 L 211.6875 101.066406 L 208.53125 101.066406 C 207.34375 101.066406 204.574219 100.773438 204.480469 98.128906 Z M 204.480469 98.140625 "/>
<path style=" stroke:none;fill-rule:nonzero;fill:rgb(25.490198%,25.490198%,25.490198%);fill-opacity:1;" d="M 54.96875 100.058594 L 50.535156 109.917969 L 60.144531 109.917969 L 64.570312 100.058594 Z M 54.96875 100.058594 "/>
<path style=" stroke:none;fill-rule:nonzero;fill:rgb(25.490198%,25.490198%,25.490198%);fill-opacity:1;" d="M 68.558594 91.171875 L 79.085938 67.707031 L 89.625 91.171875 L 99.226562 91.171875 L 83.96875 57.175781 L 74.214844 57.175781 L 58.960938 91.171875 Z M 68.558594 91.171875 "/>
<path style=" stroke:none;fill-rule:nonzero;fill:rgb(25.490198%,25.490198%,25.490198%);fill-opacity:1;" d="M 103.214844 100.058594 L 93.617188 100.058594 L 98.039062 109.917969 L 107.640625 109.917969 Z M 103.214844 100.058594 "/>
</g>
</svg>